# Exported from Wings 3D v1.5.3.2015-01-15---20-50.mlab
mtllib crystalblock.mtl
o Cube1
#95 vertices, 93 faces
v -0.14250207 0.57148641 -0.20715313
v -0.18195832 0.24456393 0.0
v -0.14469627 0.57138067 0.24378335
v 0.0 0.25520276 -0.13810498
v 0.17290764 0.58668658 0.0
v 0.0 0.25519870 0.17635827
v -0.10842780 0.24810750 0.17629826
v 0.11233224 0.25874632 0.0
v -0.10834356 0.24811156 -0.13816498
v 0.0 0.58165510 -0.20559006
v -0.24910144 0.56634920 0.0
v 0.0 0.58154936 0.24534642
v -0.14462904 0.0 0.0
v 0.0 0.0 0.13658317
v 0.0 0.0 0.13501914
v 0.0 0.0 0.0
v 0.0 0.0 0.0
v 0.0 0.0 0.0
v 0.0 0.93532884 0.0
v 0.0 0.93739419 0.0
v 0.0 0.93842907 0.0
v 0.0 0.93737254 0.11048741
v 0.0 0.93530754 0.10839637
v -0.12780195 0.93429829 0.0
v 0.0 0.36607311 -0.33724847
v -0.17796610 0.15534994 -0.25772515
v 0.0 0.26071423 -0.47817433
v 0.0 0.31923636 -0.40811521
v 0.0 0.0 -0.37650125
v -0.10044910 0.0 -0.37682688
v 0.11631680 0.16970357 -0.25707390
v 0.0 0.36996824 -0.33751768
v -0.11537040 0.31144610 -0.40757679
v 0.0 0.26460936 -0.47844353
v -0.14163113 0.0 -0.18877866
v 0.0 0.0 -0.27656924
v 0.0 0.0 -0.27274145
v 0.0 0.0 -0.18356165
v 0.0 0.40233780 -0.45539756
v 0.0 0.40335281 -0.45462575
v 0.0 0.38678779 -0.47708188
v 0.0 0.36947105 -0.49995752
v 0.0 0.36900109 -0.50000000
v 0.0 0.38530273 -0.47789642
v -0.44449731 0.33627837 0.0
v -0.22137621 0.44346594 0.27110035
v -0.35015336 0.0 0.14400210
v -0.41296170 0.24338333 0.41582810
v -0.15563710 0.16248467 0.31732263
v -0.27652447 0.0 0.30119239
v -0.30289487 0.15530368 0.0
v -0.49784727 0.23861915 0.23641967
v -0.30626178 0.43870177 0.0
v -0.27472617 0.34580673 0.43316844
v -0.12331666 0.0 0.23923289
v -0.21137337 0.0 0.22606020
v -0.26669907 0.0 0.11147229
v -0.23430431 0.0 0.0
v -0.48308125 0.47545706 0.26571833
v -0.50000000 0.44306082 0.31643628
v -0.47248767 0.44384194 0.37432676
v -0.42824249 0.47754887 0.37971804
v -0.41248061 0.50938482 0.32799066
v -0.43979793 0.50809337 0.27185104
v 0.50000000 0.28841661 0.24113854
v 0.20611011 0.0 0.28980284
v 0.22251941 0.40959494 0.50000000
v 0.23272514 0.16976511 0.0
v 0.25898805 0.54876177 0.0
v 0.0 0.16259175 0.31172775
v 0.27963624 0.0 0.13253938
v 0.43181890 0.42158728 0.0
v 0.39535026 0.28242044 0.46718555
v 0.15433831 0.54276560 0.30676744
v 0.14688819 0.0 0.22245120
v 0.0 0.0 0.23752318
v 0.16329886 0.0 0.0
v 0.20074626 0.0 0.10360405
v 0.49922933 0.54960795 0.34705500
v 0.47736498 0.59055695 0.28414106
v 0.42116611 0.63118711 0.29388077
v 0.38812853 0.62954142 0.36741127
v 0.41142437 0.58797203 0.42897526
v 0.46634036 0.54864461 0.41839544
v 0.0 0.99925938 0.0
v 0.0 1.00117203 0.0
v 0.0 0.99924621 0.0
v 0.0 0.99862353 0.0
v 0.0 1.00052010 0.0
v 0.0 1.00053352 0.0
v 0.0 0.99989488 0.0
v 0.0 0.38625410 -0.47769887
v -0.45618134 0.47640230 0.32283626
v 0.44406523 0.58983460 0.35668844
v 0.0 0.0 0.0
vt 0.0 0.19600576
vt 0.0 0.56978855
vt 0.0 0.58340363
vt 0.0 0.78354213
vt 0.0 0.63984172
vt 0.0 0.76854010
vt 0.0 0.0
vt 0.0 0.58340363
vt 0.0 0.32002896
vt 0.0 0.0
vt 0.0 0.34326310
vt 0.0 0.48416945
vt 0.0 0.58544248
vt 0.0 0.71401222
vt 0.0 0.84331350
vt 0.0 0.34354590
vt 0.0 0.32048730
vt 0.0 0.61850734
vt 0.0 0.0
vt 0.0 0.0
vt 0.0 0.19160023
vt 0.0 0.19618044
vt 0.0 0.79524905
vt 0.0 0.76854010
vt 0.0 0.0
vt 0.0 0.52713938
vt 0.0 0.68957323
vt 0.0 0.31858821
vt 0.0 0.0
vt 0.0 0.39910986
vt 0.10076113 0.34203344
vt 0.10301710 0.69518305
vt 0.10301710 0.76029030
vt 0.11012321 0.88975348
vt 0.11933859 0.34242059
vt 0.12291802 0.34354590
vt 0.12518530 0.31921579
vt 0.13414180 0.0
vt 0.13642547 0.73560569
vt 0.14055259 0.42912085
vt 0.14061222 0.0
vt 0.14152470 0.76854010
vt 0.14152470 0.84775282
vt 0.15032307 0.19507497
vt 0.15032307 0.19237850
vt 0.15395673 0.83806778
vt 0.15508251 0.34392563
vt 0.15508251 0.56858896
vt 0.15956683 0.47577914
vt 0.16037258 0.0
vt 0.16475025 0.87433422
vt 0.16599536 0.0
vt 0.17463208 0.87430772
vt 0.17541657 0.31841858
vt 0.17749843 0.57629387
vt 0.18135432 0.34180011
vt 0.18154022 0.61743957
vt 0.18493130 0.83879617
vt 0.19395243 0.76974120
vt 0.19971995 0.34145420
vt 0.20506351 0.37632151
vt 0.20518243 0.31785795
vt 0.20531818 0.0
vt 0.21278656 0.0
vt 0.22298849 0.34354590
vt 0.22548751 0.28537541
vt 0.22548751 0.32037531
vt 0.22548751 0.10809687
vt 0.22548751 0.19000840
vt 0.22950915 0.67535582
vt 0.23035871 0.50115275
vt 0.23281188 0.33805907
vt 0.23549048 0.26357969
vt 0.23739587 0.30508443
vt 0.23967553 0.30508443
vt 0.24175551 0.23652255
vt 0.24212588 0.0
vt 0.24451973 0.32299458
vt 0.24646704 0.26028015
vt 0.24944461 0.28298787
vt 0.25154763 0.34065773
vt 0.25441448 0.39405823
vt 0.25655159 0.30801896
vt 0.25907240 0.26120449
vt 0.26031289 0.35591624
vt 0.26031289 0.56523424
vt 0.26337512 0.32589850
vt 0.26380395 0.30231494
vt 0.26463739 0.58340363
vt 0.26481124 0.26120449
vt 0.27148658 0.23802068
vt 0.27319223 0.27020435
vt 0.27319223 0.28024309
vt 0.27512596 0.47456468
vt 0.27779831 0.26159301
vt 0.27822845 0.27857050
vt 0.27987632 0.60231190
vt 0.27987632 0.62257943
vt 0.28192653 0.57563310
vt 0.28301495 0.26995540
vt 0.28767319 0.26120449
vt 0.28810867 0.27845953
vt 0.29295247 0.26970478
vt 0.29320887 0.65166647
vt 0.29446688 0.0
vt 0.29905163 0.58825094
vt 0.30054118 0.11212346
vt 0.30054118 0.11281447
vt 0.30054118 0.27603804
vt 0.30951725 0.26001337
vt 0.30970733 0.29195639
vt 0.31146594 0.0
vt 0.31901351 0.27592820
vt 0.32399084 0.70552601
vt 0.32488875 0.23640171
vt 0.32503186 0.64697634
vt 0.32809526 0.25964077
vt 0.32829160 0.29210591
vt 0.33058913 0.25964077
vt 0.33148673 0.58389746
vt 0.33180673 0.38056890
vt 0.33771675 0.27581475
vt 0.34200298 0.73128521
vt 0.34201522 0.50893236
vt 0.34407516 0.68045971
vt 0.34409712 0.61350532
vt 0.34865591 0.34584559
vt 0.34917181 0.25937136
vt 0.35501089 0.23596499
vt 0.36368790 0.64698903
vt 0.36386355 0.0
vt 0.37568317 0.0
vt 0.37568317 0.10912476
vt 0.37799014 0.0
vt 0.37842704 0.40458256
vt 0.38057022 0.34354590
vt 0.38057022 0.55130157
vt 0.38087221 0.73239085
vt 0.38297146 0.68093719
vt 0.38299404 0.61305356
vt 0.38888910 0.48012770
vt 0.39525378 0.58340363
vt 0.39818776 0.55877440
vt 0.40177435 0.70703292
vt 0.40284171 0.64700208
vt 0.40895354 0.19059280
vt 0.40961313 0.0
vt 0.42317074 0.0
vt 0.42481345 0.40716435
vt 0.42660497 0.58720850
vt 0.43476917 0.65045829
vt 0.43912964 0.34981599
vt 0.44473028 0.50210693
vt 0.44630280 0.62030673
vt 0.44630280 0.72189342
vt 0.45327239 0.72873400
vt 0.46442040 0.68818405
vt 0.46670233 0.25935808
vt 0.47059557 0.34354590
vt 0.47358338 0.35623170
vt 0.47358338 0.42639278
vt 0.47699525 0.15856725
vt 0.47932404 0.39430975
vt 0.48624654 0.71017438
vt 0.48866010 0.11158155
vt 0.48866010 0.24971713
vt 0.49580755 0.0
vt 0.50243203 0.47230979
vt 0.50523345 0.63000542
vt 0.50995048 0.34354590
vt 0.51557873 0.23534841
vt 0.52247721 0.25826255
vt 0.52924353 0.37824258
vt 0.53681925 0.58340363
vt 0.54128392 0.25756786
vt 0.54227729 0.66717194
vt 0.54375206 0.53083385
vt 0.54605955 0.23422247
vt 0.54823247 0.0
vt 0.55954506 0.45388628
vt 0.56211754 0.52464271
vt 0.56384033 0.0
vt 0.56384033 0.10978039
vt 0.56384033 0.57188723
vt 0.56384033 0.21520272
vt 0.56856913 0.58854946
vt 0.56856913 0.58964161
vt 0.57595386 0.0
vt 0.57679420 0.29588998
vt 0.57951866 0.58327773
vt 0.58742091 0.50512612
vt 0.59595413 0.21530431
vt 0.59647034 0.0
vt 0.59806200 0.66963228
vt 0.60007763 0.58340363
vt 0.61897981 0.0
vt 0.62020007 0.26642964
vt 0.62066603 0.36386184
vt 0.62772435 0.15655373
vt 0.63580059 0.63326710
vt 0.63643902 0.53974619
vt 0.63852999 0.44165947
vt 0.65451947 0.71040633
vt 0.66298190 0.41038352
vt 0.67030713 0.33014115
vt 0.67686589 0.68894491
vt 0.67840469 0.41038352
vt 0.68134552 0.47194047
vt 0.68691875 0.72822293
vt 0.68938719 0.11350720
vt 0.69391082 0.39955111
vt 0.69404423 0.72119787
vt 0.69432253 0.41427432
vt 0.69846801 0.21520272
vt 0.71807450 0.0
vt 0.71807450 0.20188599
vt 0.72498014 0.0
vt 0.72844461 0.10800632
vt 0.73917419 0.14339968
vt 0.74905395 0.14330649
vt 0.75940810 0.10690292
vt 0.76386222 0.0
vt 0.77047981 0.0
vt 0.77047981 0.11968478
vt 0.77772848 0.12622775
vt 0.78701732 0.0
vt 0.81028083 0.10610530
vt 0.82611634 0.0
vt 0.85199911 0.0
vt 0.86555124 0.0
vt 0.88382591 0.0
vt 0.88382591 0.0
vt 0.90620700 0.0
vt 0.91449682 0.0
vt 0.94352095 0.0
vt 0.96102087 0.10619700
vt 0.98309507 0.0
vt 0.99277836 0.12427491
vt 1.00000000 0.11735002
vn -0.53715894 0.0 -0.84007411
vn -0.57222657 0.11978533 -0.81130033
vn -0.54571036 0.0 0.83457492
vn 0.95519214 0.24780026 -0.16187344
vn 0.99609196 0.0 0.0
vn -0.52574921 0.0 0.84964726
vn 0.50371222 0.10443472 0.85753565
vn 0.52664560 0.0 -0.84614508
vn -0.95678807 0.22375918 -0.18571058
vn 0.53846773 0.0 -0.83758010
vn -0.99834436 0.0 0.0
vn 0.52984431 0.0 0.84305615
vn -0.29122632 -0.79508882 -0.53199718
vn 0.21480549 -0.93072128 0.29600084
vn -0.26347491 -0.88921884 0.37399308
vn 0.21087273 -0.89088518 -0.40231366
vn 0.63771133 -0.76906180 0.0
vn -0.39304421 -0.91937311 0.0
vn -0.49680062 0.44046620 -0.74778250
vn 0.47485379 0.45477818 -0.75345251
vn 0.91345716 0.40690524 0.0
vn 0.46490382 0.45543310 0.75923984
vn -0.50645698 0.43952834 0.74183297
vn -0.92435658 0.38149995 0.0
vn -0.49350801 0.83074901 0.25749937
vn -0.99812175 0.0 0.0
vn -0.48023069 -0.20214909 -0.85353045
vn 0.91574424 0.32969540 -0.22959405
vn 0.53277596 -0.53926611 -0.65218237
vn -0.48389918 -0.55381188 -0.67759427
vn 0.99996897 0.0 0.0
vn 0.43311606 0.85680053 0.27982731
vn -0.91825829 0.29743439 -0.26140867
vn 0.50584812 -0.19112533 -0.84118297
vn -0.75643175 -0.65047962 0.0
vn -0.30392270 -0.88308892 -0.35747022
vn 0.25443728 -0.93362996 -0.25218401
vn 0.76721222 -0.63247214 0.10660394
vn -0.25072666 0.92959599 -0.27016186
vn 0.27577701 0.95387598 -0.11860719
vn 0.46277364 0.71267778 -0.52719156
vn 0.33538199 0.29709817 -0.89400872
vn -0.25526196 0.45851048 -0.85123996
vn -0.64117053 0.60115863 -0.47697867
vn -0.68689072 0.20410210 -0.69751234
vn 0.66109410 0.73596689 0.14597029
vn -0.74843238 -0.65686339 0.0
vn -0.47440672 -0.36667148 0.80030637
vn 0.63053148 -0.19380880 0.75157714
vn -0.24999225 -0.70396314 0.66478551
vn -0.46177288 -0.17047780 -0.87046144
vn -0.93779607 -0.34712848 0.0
vn 0.14383228 0.76811852 -0.62394408
vn 0.39045029 0.21661637 0.89477702
vn 0.48274386 -0.68761647 0.54234856
vn -0.17176090 -0.88613962 0.43041232
vn -0.37491036 -0.92613038 0.0
vn -0.30606834 -0.68356193 -0.66262000
vn -0.75060524 0.65517463 0.0
vn -0.95147153 0.25625714 0.17039424
vn -0.69024706 0.43262686 0.57999397
vn -0.16636106 0.65172545 0.73998509
vn -0.15223746 0.94551108 0.28780645
vn -0.29718910 0.93677731 -0.18473472
vn 0.92784706 -0.37047515 0.0
vn 0.26593694 -0.72195942 0.63878959
vn -0.40257141 0.14069061 0.90451225
vn 0.39303503 -0.19214032 -0.89922498
vn -0.22921228 0.73418813 -0.63908490
vn -0.63206536 -0.24762070 0.73428698
vn 0.74229880 -0.65729265 -0.13022619
vn 0.64196581 0.18284210 -0.74461309
vn 0.48119843 -0.41581396 0.77171680
vn -0.71927300 0.67473156 0.16548010
vn 0.21318360 -0.87208854 0.44047059
vn -0.46546621 -0.68906555 0.55545466
vn 0.29293347 -0.66858847 -0.68350526
vn 0.40042297 -0.91489943 0.0
vn 0.88340142 0.42020158 0.20744292
vn 0.76253550 0.60866242 -0.21924795
vn 0.37490374 0.92616398 0.0
vn 0.0 0.94931638 0.30953494
vn 0.31396792 0.69337635 0.64857797
vn 0.69839231 0.27624658 0.66025450
vn -0.27304549 0.88207510 -0.38391364
vn 0.48590379 0.87400815 0.0
vn -0.27822759 0.88165402 0.38115037
vn -0.67668033 0.73626905 0.0
vn 0.31343190 0.78878648 0.52874978
vn 0.32062832 0.78833131 -0.52510116
vn 0.0 0.99970209 0.0
vn 0.0 0.80075850 -0.59885241
vn -0.60334271 0.74801676 0.27649320
vn 0.59373936 0.75295888 0.28377190
vn 0.0 -1.00000000 0.0
g Cube1_Cube1_auv
usemtl Cube1_auv
s 1
f 1/133/1 10/107/10 4/112/4 9/131/9
f 1/45/1 11/69/11 24/62/24 19/54/19
f 2/64/2 9/50/9 18/52/18 13/63/13
f 2/34/2 53/15/53 46/23/46 7/43/7
f 3/108/3 11/68/11 2/77/2 7/105/7
f 3/21/3 12/44/12 22/37/22 23/28/23
f 4/20/4 8/7/8 16/10/16 17/19/17
f 4/59/4 32/58/32 25/46/25 9/42/9
f 5/1/5 10/22/10 20/17/20 21/9/21
f 5/183/5 12/165/12 6/167/6 8/179/8
f 6/41/6 7/25/7 14/29/14 15/38/15
f 6/32/6 74/57/74 69/70/69 8/39/8
f 7/25/7 6/41/6 12/44/12 3/21/3
f 7/161/7 49/149/49 55/152/55 14/159/14
f 8/7/8 4/20/4 10/22/10 5/1/5
f 8/40/8 68/30/68 77/36/77 16/47/16
f 9/50/9 2/64/2 11/69/11 1/45/1
f 9/176/9 26/169/26 35/174/35 18/186/18
f 13/145/13 18/139/18 95/130/95 14/140/14
f 13/185/13 58/192/58 51/197/51 2/189/2
f 14/140/14 57/154/57 58/151/58 13/145/13
f 14/140/14 95/130/95 16/116/16 15/126/15
f 15/134/15 76/147/76 70/148/70 6/132/6
f 16/116/16 77/104/77 78/98/78 15/126/15
f 16/116/16 95/130/95 18/139/18 17/125/17
f 17/187/17 38/195/38 31/200/31 4/194/4
f 18/139/18 37/123/37 38/114/38 17/125/17
f 19/129/19 20/115/20 10/107/10 1/133/1
f 19/129/19 85/128/85 90/119/90 20/115/20
f 20/17/20 90/16/90 86/11/86 21/9/21
f 21/178/21 22/171/22 12/165/12 5/183/5
f 21/178/21 86/175/86 89/172/89 22/171/22
f 22/37/22 89/35/89 87/31/87 23/28/23
f 23/91/23 24/76/24 11/68/11 3/108/3
f 23/91/23 87/90/87 88/79/88 24/76/24
f 24/62/24 88/60/88 85/56/85 19/54/19
f 25/46/25 32/58/32 40/53/40 39/51/39
f 25/164/25 33/157/33 26/169/26 9/176/9
f 26/230/26 30/228/30 36/229/36 35/232/35
f 27/226/27 33/227/33 44/225/44 43/224/43
f 27/221/27 34/218/34 29/215/29 30/223/30
f 28/206/28 32/203/32 4/194/4 31/200/31
f 28/236/28 34/237/34 42/239/42 41/238/41
f 29/235/29 31/233/31 38/231/38 37/234/37
f 30/228/30 26/230/26 33/227/33 27/226/27
f 31/233/31 29/235/29 34/237/34 28/236/28
f 36/138/36 37/123/37 18/139/18 35/144/35
f 37/217/37 36/222/36 30/223/30 29/215/29
f 39/156/39 44/155/44 33/157/33 25/164/25
f 40/101/40 41/103/41 92/100/92 39/95/39
f 41/212/41 40/209/40 32/203/32 28/206/28
f 42/102/42 43/96/43 92/100/92 41/103/41
f 43/220/43 42/219/42 34/218/34 27/221/27
f 44/92/44 39/95/39 92/100/92 43/96/43
f 45/14/45 52/27/52 60/33/60 59/24/59
f 45/205/45 53/198/53 2/189/2 51/197/51
f 46/23/46 53/15/53 64/4/64 63/6/63
f 46/153/46 54/141/54 49/149/49 7/161/7
f 47/18/47 51/5/51 58/3/58 57/13/57
f 48/180/48 52/168/52 47/163/47 50/173/50
f 48/191/48 54/201/54 62/190/62 61/184/61
f 49/208/49 50/202/50 56/204/56 55/213/55
f 50/202/50 49/208/49 54/201/54 48/191/48
f 51/5/51 47/18/47 52/27/52 45/14/45
f 55/142/55 56/150/56 57/154/57 14/140/14
f 57/160/57 56/170/56 50/173/50 47/163/47
f 59/211/59 64/207/64 53/198/53 45/205/45
f 60/67/60 61/74/61 93/78/93 59/72/59
f 61/181/61 60/177/60 52/168/52 48/180/48
f 62/83/62 63/87/63 93/78/93 61/74/61
f 63/143/63 62/137/62 54/141/54 46/153/46
f 64/81/64 59/72/59 93/78/93 63/87/63
f 65/94/65 72/124/72 80/99/80 79/86/79
f 65/71/65 73/49/73 66/61/66 71/82/71
f 66/196/66 70/188/70 76/182/76 75/193/75
f 67/199/67 73/210/73 84/216/84 83/214/83
f 67/162/67 74/146/74 6/132/6 70/148/70
f 68/135/68 71/121/71 78/127/78 77/136/77
f 69/26/69 72/12/72 68/30/68 8/40/8
f 69/70/69 74/57/74 82/89/82 81/97/81
f 70/188/70 66/196/66 73/210/73 67/199/67
f 71/121/71 68/135/68 72/124/72 65/94/65
f 75/65/75 78/85/78 71/82/71 66/61/66
f 76/120/76 15/126/15 78/98/78 75/106/75
f 79/55/79 84/48/84 73/49/73 65/71/65
f 80/88/80 81/75/81 94/80/94 79/93/79
f 81/8/81 80/2/80 72/12/72 69/26/69
f 82/66/82 83/73/83 94/80/94 81/75/81
f 83/166/83 82/158/82 74/146/74 67/162/67
f 84/84/84 79/93/79 94/80/94 83/73/83
f 88/109/88 87/110/87 91/113/91 85/111/85
f 89/117/89 86/122/86 91/113/91 87/110/87
f 90/118/90 85/111/85 91/113/91 86/122/86
