# Blender v2.92.0 OBJ File: ''
# www.blender.org
mtllib crystal.mtl
o Cube1_Cube1_auv
v 0.357498 0.571486 0.292847
v 0.500000 0.581655 0.294410
v 0.500000 0.255203 0.361895
v 0.391656 0.248112 0.361835
v 0.250899 0.566349 0.500000
v 0.372198 0.934298 0.500000
v 0.500000 0.935329 0.500000
v 0.318042 0.244564 0.500000
v 0.355371 -0.000000 0.500000
v 0.193738 0.438702 0.500000
v 0.278624 0.443466 0.771100
v 0.391572 0.248107 0.676298
v 0.355304 0.571381 0.743783
v 0.500000 0.581549 0.745347
v 0.500000 0.937373 0.610488
v 0.500000 0.935308 0.608397
v 0.612332 0.258746 0.500000
v 0.500000 -0.000000 0.500000
v 0.500000 0.368020 0.162617
v 0.672908 0.586687 0.500000
v 0.500000 0.937394 0.500000
v 0.500000 0.938429 0.500000
v 0.500000 0.255199 0.676358
v 0.500000 -0.000000 0.636583
v 0.500000 -0.000000 0.635019
v 0.654338 0.542766 0.806768
v 0.758988 0.548762 0.500000
v 0.344363 0.162485 0.817323
v 0.376683 -0.000000 0.739233
v 0.732725 0.169765 0.500000
v 0.663299 -0.000000 0.500000
v 0.322034 0.155350 0.242275
v 0.358369 -0.000000 0.311221
v 0.265696 -0.000000 0.500000
v 0.197105 0.155304 0.500000
v 0.233301 -0.000000 0.611472
v 0.500000 -0.000000 0.737523
v 0.500000 0.162592 0.811728
v 0.700746 -0.000000 0.603604
v 0.500000 -0.000000 0.316438
v 0.616317 0.169704 0.242926
v 0.500000 -0.000000 0.227259
v 0.500000 1.001172 0.500000
v 0.500000 1.000520 0.500000
v 0.500000 0.999246 0.500000
v 0.500000 0.998624 0.500000
v 0.500000 0.402846 0.044989
v 0.384630 0.311446 0.092423
v 0.399551 -0.000000 0.123173
v 0.500000 -0.000000 0.223431
v 0.500000 0.260714 0.021826
v 0.500000 0.386115 0.022441
v 0.500000 0.369236 0.000021
v 0.500000 0.264609 0.021557
v 0.500000 -0.000000 0.123499
v 0.500000 0.319236 0.091885
v 0.055503 0.336278 0.500000
v 0.002153 0.238619 0.736420
v 0.000000 0.443061 0.816436
v 0.016919 0.475457 0.765718
v 0.060202 0.508093 0.771851
v 0.087519 0.509385 0.827991
v 0.225274 0.345807 0.933169
v 0.149847 -0.000000 0.644002
v 0.087038 0.243383 0.915828
v 0.223476 -0.000000 0.801192
v 0.071757 0.477549 0.879718
v 0.027512 0.443842 0.874327
v 0.288627 -0.000000 0.726060
v 0.043819 0.476402 0.822836
v 1.000000 0.288417 0.741139
v 0.931819 0.421587 0.500000
v 0.977365 0.590557 0.784141
v 0.999229 0.549608 0.847055
v 0.895350 0.282420 0.967186
v 0.706110 -0.000000 0.789803
v 0.779636 -0.000000 0.632539
v 0.646888 -0.000000 0.722451
v 0.722519 0.409595 1.000000
v 0.966340 0.548645 0.918396
v 0.911424 0.587972 0.928975
v 0.888129 0.629541 0.867411
v 0.921166 0.631187 0.793881
v 0.944065 0.589835 0.856688
v 0.500000 0.999895 0.500000
vt 0.086776 0.000000
vt 0.062652 0.158212
vt 0.017567 0.137806
vt 0.432462 0.610250
vt 0.436826 0.433354
vt 0.483340 0.450577
vt 0.344337 0.100172
vt 0.437828 0.000000
vt 0.416406 0.116264
vt 0.000000 0.753505
vt 0.108878 0.857345
vt 0.017868 0.857345
vt 0.390682 0.270461
vt 0.484620 0.129202
vt 0.484620 0.288227
vt 0.278600 0.656506
vt 0.274938 0.803006
vt 0.209356 0.651817
vt 0.112881 0.214992
vt 0.000000 0.282054
vt 0.780763 0.451875
vt 0.745261 0.555639
vt 0.738634 0.435428
vt 0.283163 0.535677
vt 0.282946 0.374423
vt 0.283162 0.374024
vt 0.627253 0.166999
vt 0.527759 0.000000
vt 0.627253 0.011442
vt 0.279715 0.496302
vt 0.279081 0.374083
vt 0.279715 0.374024
vt 0.278600 0.803006
vt 0.145640 0.934174
vt 0.147552 0.837214
vt 0.278456 0.496992
vt 0.226587 0.493862
vt 0.753262 0.188584
vt 0.845987 0.269087
vt 0.787443 0.312583
vt 0.223323 0.112723
vt 0.065138 0.316538
vt 0.678513 0.376281
vt 0.780763 0.328106
vt 0.432462 0.601056
vt 0.367796 0.601056
vt 0.432462 0.531788
vt 0.926395 0.607582
vt 0.951162 0.694822
vt 0.879632 0.702643
vt 0.379073 0.473323
vt 0.367047 0.601056
vt 0.146344 0.026913
vt 1.000000 0.122843
vt 0.932071 0.035779
vt 1.000000 0.000000
vt 0.432462 0.679267
vt 0.278600 0.374024
vt 0.361771 0.910575
vt 0.374691 0.788813
vt 0.436560 0.910575
vt 0.279081 0.565938
vt 0.278600 0.374885
vt 0.279081 0.374024
vt 0.278600 0.374024
vt 0.278600 0.374024
vt 0.278600 0.374024
vt 0.278600 0.374024
vt 0.278600 0.374024
vt 0.483340 0.626281
vt 0.483340 0.813117
vt 0.438708 0.646605
vt 0.780763 0.564704
vt 0.804868 0.547428
vt 0.804868 0.602753
vt 0.638837 0.626392
vt 0.667951 0.575082
vt 0.640136 0.626773
vt 0.896423 0.390242
vt 0.780763 0.547428
vt 0.821448 0.364177
vt 0.869531 0.328106
vt 0.924798 0.306944
vt 0.901555 0.291769
vt 0.924798 0.238898
vt 0.283163 0.246504
vt 0.334215 0.433354
vt 0.675574 0.548649
vt 0.879632 0.799887
vt 0.797886 0.841538
vt 0.787055 0.761716
vt 0.823286 0.660808
vt 0.865231 0.612323
vt 0.879632 0.663338
vt 0.668095 0.948305
vt 0.625408 0.821556
vt 0.668095 0.806146
vt 0.750329 0.859713
vt 0.750329 0.964687
vt 0.709950 0.866275
vt 0.945465 0.367021
vt 0.905911 0.344912
vt 0.914307 0.336475
vt 0.298923 0.834462
vt 0.325437 0.910575
vt 0.283163 0.910575
vt 0.668605 0.874421
vt 0.947465 0.846862
vt 0.879632 0.887075
vt 0.947465 0.845029
vt 0.719889 0.607582
vt 0.922760 0.328106
vt 0.919204 0.394286
vt 0.919481 0.396134
vt 0.133879 0.744541
vt 0.608071 0.462247
vt 0.559485 0.564044
vt 0.484620 0.443002
vt 0.962691 0.787930
vt 0.090316 0.652164
vt 0.120140 0.653383
vt 0.753372 0.072325
vt 0.834177 0.183044
vt 0.783917 0.859713
vt 0.783917 0.952381
vt 0.750329 0.951060
vt 0.668605 0.355777
vt 0.668605 0.495684
vt 0.850819 0.082352
vt 0.919341 0.004935
vt 0.932071 0.096626
vt 0.478593 0.813117
vt 0.478593 0.903907
vt 0.438708 0.889500
vt 0.845987 0.196098
vt 0.932071 0.238898
vt 0.513960 0.353952
vt 0.317883 0.541995
vt 0.324193 0.499821
vt 0.363493 0.433354
vt 0.811690 0.897472
vt 0.869455 0.987766
vt 0.787055 0.987766
vt 0.795937 0.872165
vt 0.822303 0.869497
vt 0.589395 0.564081
vt 0.609102 0.574549
vt 0.833373 0.841538
vt 0.806739 0.843756
vt 0.820367 0.000000
vt 0.790863 0.001600
vt 0.837649 0.894873
vt 0.848522 0.867333
vt 0.484620 0.693071
vt 0.590018 0.738408
vt 0.572903 0.765567
vt 0.668605 0.730748
vt 0.763743 0.859713
vt 0.681171 0.859713
vt 0.283163 0.601057
vt 0.325921 0.671407
vt 0.293663 0.699771
vt 0.753032 0.113384
vt 0.696440 0.000000
vt 0.729156 0.000923
vt 0.118526 0.482992
vt 0.155576 0.652164
vt 0.022851 0.544658
vt 0.137495 0.271636
vt 0.083443 0.350178
vt 0.283163 0.225324
vt 0.247681 0.144207
vt 0.050478 0.374024
vt 0.209356 0.389636
vt 0.753262 0.288788
vt 0.649111 0.111653
vt 0.283163 0.346339
vt 0.115852 0.374024
vt 0.368984 0.734986
vt 0.318702 0.601057
vt 0.710827 0.607582
vt 0.787055 0.733646
vt 0.605784 0.765148
vt 0.638837 0.574549
vt 0.623400 0.737915
vt 0.638837 0.765039
vt 0.000000 0.417696
vt 0.588379 0.791815
vt 0.620941 0.791764
vt 0.484620 0.151071
vt 0.278600 0.374024
vt 0.278600 0.374024
vt 0.612594 0.953730
vt 0.484620 0.953730
vt 0.554382 0.791815
vt 0.668095 0.806146
vt 0.147190 0.652164
vt 0.199155 0.787869
vt 0.133879 0.787869
vt 0.278600 0.958252
vt 0.668605 0.441431
vt 0.962691 0.625492
vt 0.432462 0.488839
vt 0.953695 0.116846
vt 0.382842 0.697202
vt 0.483340 0.626281
vt 0.522285 0.328106
vt 0.667656 0.574549
vt 0.905911 0.547428
vt 0.668095 0.575341
vt 0.278600 0.374024
vt 0.899356 0.797011
vt 0.852609 0.609907
vt 0.972144 0.518292
vt 0.291023 0.734986
vt 0.095076 0.971612
vt 0.000000 0.971612
vt 0.072806 0.857344
vt 0.947465 0.977489
vt 0.947465 0.797168
vt 0.839968 0.607582
vt 0.972144 0.342527
vt 0.880829 0.797011
vt 0.845987 0.065823
vt 0.891566 0.238898
vt 0.901555 0.315484
vt 0.845987 0.315484
vt 0.614454 0.328106
vt 0.893157 0.000000
vt 0.139817 0.935064
vt 0.095076 0.871840
vt 0.139817 0.857344
vt 0.288209 0.468618
vt 0.537169 0.589074
vt 0.985443 0.233666
vt 0.932071 0.168227
vt 0.985443 0.122843
vt 0.209356 0.595268
vt 0.030910 0.398786
vt 0.627253 0.288788
vt 0.748172 0.608057
vn -0.4896 0.1068 -0.8653
vn 0.9256 0.2135 -0.3125
vn -0.9368 0.1597 -0.3112
vn -0.6473 0.7342 -0.2045
vn -0.6544 0.1936 -0.7309
vn -0.1023 -0.7947 -0.5982
vn -0.5608 0.0170 -0.8278
vn 0.1699 0.6814 -0.7118
vn 0.4597 0.1322 0.8782
vn -0.9982 0.0494 -0.0348
vn -0.5451 0.0751 0.8350
vn 0.4203 0.0757 0.9042
vn -0.9026 0.2887 0.3193
vn 0.4319 0.0038 -0.9019
vn 0.1533 -0.9047 -0.3975
vn 0.3312 0.9265 0.1782
vn 0.9933 0.0980 -0.0616
vn -0.1563 0.9715 0.1780
vn 0.7317 0.1691 0.6603
vn -0.5228 0.1690 0.8355
vn 0.7015 -0.6116 0.3659
vn 0.0000 -1.0000 0.0000
vn -0.6856 0.7063 0.1762
vn 0.3418 -0.6836 0.6449
vn 0.3461 -0.6659 -0.6608
vn -0.7068 -0.6704 0.2258
vn -0.4068 -0.2433 -0.8805
vn -0.2403 -0.9372 -0.2526
vn 0.3858 0.1491 -0.9105
vn -0.7917 -0.1368 0.5953
vn 0.9475 -0.2583 0.1886
vn -0.0001 0.0000 1.0000
vn 0.4079 0.8168 0.4079
vn -0.1717 0.8441 0.5080
vn -1.0000 0.0000 0.0000
vn -0.6772 0.2732 0.6832
vn -0.8302 0.4222 -0.3639
vn -0.4715 -0.6904 -0.5487
vn -0.9981 0.0589 0.0188
vn 0.3169 0.3672 -0.8745
vn 0.4767 -0.1658 -0.8632
vn 0.4404 -0.7409 -0.5069
vn 0.9906 -0.0035 0.1368
vn 0.9692 0.1981 -0.1458
vn 0.4107 0.7302 -0.5459
vn 0.4662 -0.8847 0.0000
vn 0.9909 0.0400 -0.1286
vn 0.3420 0.9170 -0.2052
vn 0.6735 0.7161 0.1834
vn -0.9461 -0.3233 0.0159
vn -0.8007 0.5822 -0.1413
vn -0.6668 0.0723 -0.7417
vn -0.2829 0.9548 -0.0912
vn -0.0182 0.9570 0.2895
vn 0.6986 -0.1144 0.7063
vn -0.5666 -0.7885 -0.2391
vn -0.0431 -0.8004 0.5979
vn -0.4473 -0.3287 0.8317
vn 0.3975 0.1895 0.8978
vn -0.6850 0.2987 0.6644
vn 0.1275 -0.9391 0.3190
vn -0.9366 0.2935 0.1913
vn -0.6033 0.7480 0.2765
vn -0.1728 0.6670 0.7248
vn 0.9344 -0.3542 -0.0370
vn 0.7845 0.5990 -0.1603
vn 0.9326 0.3075 0.1889
vn 0.0747 -0.8408 0.5361
vn 0.5294 -0.8008 -0.2799
vn -0.1354 -0.9557 0.2614
vn -0.3463 0.1455 0.9268
vn 0.6964 0.2978 0.6529
vn 0.1852 0.6428 0.7432
vn 0.3667 -0.2191 -0.9041
vn 0.2545 -0.9243 -0.2842
vn 0.6431 0.0834 -0.7612
vn -0.2257 0.6644 -0.7125
vn 0.2556 0.9626 -0.0891
vn 0.4623 -0.3867 0.7979
vn -0.5814 -0.6714 0.4595
vn 0.5937 0.7530 0.2838
vn 0.0008 0.9466 0.3224
vn 0.0000 0.0000 1.0000
vn -0.3560 -0.6692 -0.6522
usemtl Cube1_auv
s 1
f 1/1/1 3/2/2 4/3/3
f 1/4/1 6/5/4 7/6/5
f 4/7/3 9/8/6 8/9/7
f 10/10/8 12/11/9 8/12/7
f 5/13/10 12/14/9 13/15/11
f 14/16/12 16/17/13 13/18/11
f 3/2/2 17/19/14 18/20/15
f 3/21/2 19/22/16 4/23/3
f 20/24/17 21/25/18 22/26/19
f 20/27/17 23/28/20 17/29/14
f 23/30/20 24/31/21 25/32/22
f 26/33/23 17/34/14 23/35/20
f 23/36/20 13/18/11 12/37/9
f 12/38/9 29/39/24 24/40/21
f 3/2/2 20/41/17 17/19/14
f 17/19/14 31/42/25 18/20/15
f 5/13/10 4/7/3 8/9/7
f 4/23/3 33/43/26 18/44/15
f 18/45/15 25/46/22 9/47/6
f 9/48/6 35/49/27 8/50/7
f 36/51/28 9/47/6 24/52/21
f 1/1/1 2/53/29 3/2/2
f 25/54/22 38/55/30 23/56/20
f 31/57/25 25/46/22 18/45/15
f 23/36/20 12/37/9 24/58/21
f 40/59/31 3/60/2 18/61/15
f 2/62/29 7/63/5 21/64/18
f 7/65/5 44/66/32 21/67/18
f 21/67/18 43/68/33 22/69/19
f 15/70/34 20/71/17 22/72/19
f 22/73/19 44/74/32 15/75/34
f 15/76/34 45/77/35 16/78/13
f 6/79/4 13/80/11 16/81/13
f 16/81/13 46/82/36 6/79/4
f 46/83/36 7/84/5 6/85/4
f 1/86/1 5/13/10 6/87/4
f 48/88/37 4/23/3 19/22/16
f 49/89/38 33/90/26 32/91/39
f 48/92/37 53/93/40 51/94/41
f 51/95/41 55/96/42 49/97/38
f 19/98/16 41/99/43 56/100/44
f 56/101/44 53/102/40 52/103/45
f 41/104/43 42/105/46 55/106/42
f 49/89/38 48/92/37 51/94/41
f 41/99/43 54/107/47 56/100/44
f 42/108/46 33/109/26 50/110/22
f 47/111/48 48/88/37 19/22/16
f 25/46/22 24/52/21 9/47/6
f 47/112/48 56/101/44 52/103/45
f 5/13/10 8/9/7 12/14/9
f 53/102/40 54/113/47 51/114/41
f 10/10/8 11/115/49 12/11/9
f 58/116/50 60/117/51 57/118/52
f 57/119/52 8/50/7 35/49/27
f 11/115/49 61/120/53 62/121/54
f 11/122/49 28/123/55 12/38/9
f 35/124/27 36/125/28 64/126/56
f 58/116/50 66/127/57 65/128/58
f 63/129/59 68/130/60 65/131/58
f 28/132/55 69/133/61 29/134/24
f 28/135/55 65/131/58 66/136/57
f 35/137/27 58/116/50 57/118/52
f 29/138/24 36/51/28 24/52/21
f 69/139/61 64/140/56 36/51/28
f 60/141/51 10/142/8 57/143/52
f 59/144/62 70/145/63 60/141/51
f 59/146/62 65/128/58 68/147/60
f 67/148/64 70/145/63 68/149/60
f 67/150/64 11/122/49 62/151/54
f 61/152/53 70/145/63 62/153/54
f 71/154/65 73/155/66 74/156/67
f 71/157/65 76/158/68 77/159/69
f 38/160/30 78/161/70 76/162/68
f 79/163/71 80/164/72 81/165/73
f 26/166/23 38/167/30 79/168/71
f 30/169/74 39/170/75 31/42/25
f 72/171/76 17/19/14 27/172/77
f 26/166/23 83/173/78 27/174/77
f 38/175/30 75/176/79 79/163/71
f 30/169/74 71/177/65 77/178/69
f 78/161/70 77/179/69 76/162/68
f 25/46/22 78/161/70 37/180/80
f 74/181/67 75/182/79 71/157/65
f 73/155/66 84/183/81 74/156/67
f 73/155/66 27/184/77 83/185/78
f 82/186/82 84/183/81 83/185/78
f 81/187/73 26/166/23 79/168/71
f 80/188/72 84/183/81 81/189/73
f 20/27/17 14/190/12 23/28/20
f 44/66/32 85/191/83 45/192/35
f 20/193/17 2/194/29 21/195/18
f 14/196/12 15/76/34 16/78/13
f 4/197/3 18/198/15 9/199/6
f 26/33/23 27/200/77 17/34/14
f 23/36/20 14/16/12 13/18/11
f 12/38/9 28/123/55 29/39/24
f 3/2/2 2/53/29 20/41/17
f 17/19/14 30/169/74 31/42/25
f 5/13/10 1/86/1 4/7/3
f 4/23/3 32/201/39 33/43/26
f 9/48/6 34/202/84 35/49/27
f 36/51/28 34/203/84 9/47/6
f 25/54/22 37/204/80 38/55/30
f 31/57/25 39/205/75 25/46/22
f 40/59/31 41/104/43 3/60/2
f 2/206/29 1/4/1 7/6/5
f 7/65/5 45/192/35 44/66/32
f 21/67/18 44/66/32 43/68/33
f 15/207/34 14/190/12 20/27/17
f 22/69/19 43/68/33 44/66/32
f 15/76/34 44/208/32 45/77/35
f 6/79/4 5/209/10 13/80/11
f 16/78/13 45/77/35 46/210/36
f 46/211/36 45/192/35 7/65/5
f 48/88/37 32/201/39 4/23/3
f 49/212/38 50/110/22 33/109/26
f 48/92/37 52/213/45 53/93/40
f 51/114/41 54/113/47 55/214/42
f 19/215/16 3/60/2 41/104/43
f 56/101/44 54/113/47 53/102/40
f 41/104/43 40/59/31 42/105/46
f 49/89/38 32/91/39 48/92/37
f 41/216/43 55/217/42 54/218/47
f 42/108/46 18/219/15 33/109/26
f 50/110/22 49/212/38 55/220/42
f 47/221/48 52/213/45 48/92/37
f 47/112/48 19/222/16 56/101/44
f 58/116/50 59/146/62 60/117/51
f 57/119/52 10/223/8 8/50/7
f 11/115/49 10/10/8 61/120/53
f 11/122/49 63/224/59 28/123/55
f 35/225/27 34/226/84 36/227/28
f 58/116/50 64/228/56 66/127/57
f 63/129/59 67/229/64 68/130/60
f 28/230/55 66/231/57 69/232/61
f 28/135/55 63/129/59 65/131/58
f 35/137/27 64/228/56 58/116/50
f 29/138/24 69/139/61 36/51/28
f 69/139/61 66/233/57 64/140/56
f 60/141/51 61/152/53 10/142/8
f 59/144/62 68/149/60 70/145/63
f 59/146/62 58/116/50 65/128/58
f 67/148/64 62/153/54 70/145/63
f 67/150/64 63/224/59 11/122/49
f 61/152/53 60/141/51 70/145/63
f 71/154/65 72/234/76 73/155/66
f 71/157/65 75/182/79 76/158/68
f 38/235/30 37/236/80 78/237/70
f 79/163/71 75/176/79 80/164/72
f 26/166/23 23/238/20 38/167/30
f 30/169/74 77/178/69 39/170/75
f 72/171/76 30/169/74 17/19/14
f 26/166/23 82/239/82 83/173/78
f 38/175/30 76/240/68 75/176/79
f 30/169/74 72/171/76 71/177/65
f 78/161/70 39/205/75 77/179/69
f 25/46/22 39/205/75 78/161/70
f 74/181/67 80/241/72 75/182/79
f 73/155/66 83/185/78 84/183/81
f 73/155/66 72/234/76 27/184/77
f 82/186/82 81/189/73 84/183/81
f 81/187/73 82/239/82 26/166/23
f 80/188/72 74/156/67 84/183/81
f 44/66/32 43/68/33 85/191/83
